<?xml version="1.0" encoding="utf-8"?>
<!-- Generator: Adobe Illustrator 16.0.0, SVG Export Plug-In . SVG Version: 6.00 Build 0)  -->
<!DOCTYPE svg PUBLIC "-//W3C//DTD SVG 1.1//EN" "http://www.w3.org/Graphics/SVG/1.1/DTD/svg11.dtd">
<svg version="1.1" xmlns="http://www.w3.org/2000/svg" xmlns:xlink="http://www.w3.org/1999/xlink" x="0px" y="0px" width="545px"
	 height="300px" viewBox="0 0 545 300" enable-background="new 0 0 545 300" xml:space="preserve">
<g id="Layer_1">
	<g>
		<g>
			<path d="M72.418,55.582l-0.723-3.064c-3.131,0.234-8.33,0.347-11.328,0.347l-16.049-0.347v3.673
				c4.679,0.122,6.535,0.292,7.855,0.451c2.198,0.267,3.771,0.675,4.138,1.262c0.305,0.501,0.45,2.198,0.45,5.102v7.221
				c0,2.897-0.15,5-0.45,6.333c-1.876,0.979-4.175,1.756-6.888,2.322c-2.729,0.555-5.54,0.832-8.427,0.832
				c-0.791,0-1.558-0.04-2.315-0.086v-0.074c-4.773-0.431-9.041-1.735-12.805-3.965c-4.628-2.743-8.331-6.731-11.063-11.912
				c-2.755-5.198-4.128-11.024-4.128-17.521c0-5.906,1.168-11.351,3.525-16.325c2.362-4.986,5.837-8.024,10.415-10.723
				c6.88-4.056,13.715-3.952,15.175-4.003c3.027-0.105,5.645,0.217,7.828,0.65c2.199,0.425,4.971,1.289,8.329,2.56
				c1.96,0.961,3.378,1.288,4.261,2.465c0.395,0.822,0.607,1.505,0.637,2.035c0.035,0.523,0.071,1.214,0.096,2.068l0.258,5.643
				h3.015c0.438-5.019,0.78-8.326,1.048-9.944c0.258-1.615,0.631-3.265,1.125-4.946c-5.073-1.413-9.635-2.523-13.658-3.337
				c-4.05-0.804-7.893-1.211-11.556-1.24c-1.241,0-3.601,0.062-3.601,0.062c-5.764,0.35-10.779,1.412-14.997,3.089
				c-3.453,1.373-6.923,3.518-10.388,6.429c-3.487,2.897-6.389,6.592-8.707,11.09C1.17,36.23,0,41.686,0,48.12
				c0,7.324,1.612,13.663,4.848,19.039c3.226,5.365,7.807,9.548,13.748,12.525c5.578,2.816,11.92,4.279,18.986,4.449v0.03
				c0.092,0,0.162,0.007,0.24,0.007c0.184,0,0.357-0.012,0.547-0.012c0.091,0,0.209,0.005,0.312,0.005v-0.016
				c4.79-0.063,9.84-0.59,15.154-1.608c3.201-0.634,7.314-1.86,12.322-3.658c-0.392-3.464-0.601-6.689-0.601-9.647
				c0-2.957,0.209-7.945,0.601-11.472L72.418,55.582z"/>
			<path d="M101.258,82.733v-2.826c-4.346-0.287-7.02-0.59-8.001-0.893c-0.499-0.149-0.858-0.372-1.068-0.608
				c-0.213-0.25-0.381-0.658-0.528-1.204c-0.121-0.558-0.202-1.869-0.237-3.906c-0.169-5.774-0.247-9.743-0.247-11.915V56.28
				c0-4.179,0.893-7.316,2.668-9.418c1.789-2.096,4.382-3.562,6.92-3.562c1.514,0,2.783,0.361,3.793,1.082
				c0.992,0.737,1.436,2.315,2.201,3.889h2.221c0.062-3.333,0.336-7.19,0.84-11.574l-0.297-0.693
				c-1.356-0.587-2.714-0.887-4.104-0.887c-1.389,0-2.723,0.268-4.008,0.773c-1.288,0.511-2.424,1.189-3.406,2.051
				c-0.568,0.481-1.472,1.58-2.718,3.257c-1.256,1.682-2.621,3.388-4.11,5.098c0.033-4.229,0.132-7.345,0.292-9.351
				c0.035-0.295,0.053-0.556,0.053-0.788c0-0.323-0.062-0.583-0.192-0.742c-0.133-0.16-0.318-0.253-0.539-0.253
				c-0.24,0-0.691,0.181-1.341,0.493c-3.068,1.488-7.937,2.688-14.593,3.616v2.815c3.76-0.033,5.907,0.041,6.453,0.225
				c0.551,0.186,0.922,0.449,1.133,0.817c0.218,0.361,0.368,1.519,0.432,3.455c0.096,3.04,0.139,5.869,0.139,8.504v5.889
				c0,0.405-0.08,4.988-0.238,13.792c-0.062,1.606-0.275,2.803-0.602,3.566c-0.168,0.394-0.385,0.691-0.671,0.914
				c-0.278,0.211-0.707,0.371-1.271,0.463c-0.294,0.075-2.327,0.136-6.064,0.194v2.826c3.955-0.233,8.042-0.348,12.266-0.348
				C90.516,82.385,95.468,82.5,101.258,82.733z"/>
			<path d="M128.293,83.567c1.902,0,3.479-0.314,4.736-0.961c1.26-0.646,5.246-3.502,11.965-8.58l-0.241,8.707
				c3.297-0.233,5.931-0.348,7.906-0.348c2.056,0,4.423,0.115,7.122,0.348v-2.826l-3.209-0.287c-1.054-0.068-1.75-0.197-2.073-0.398
				c-0.438-0.236-0.743-0.593-0.944-1.092c-0.258-0.685-0.399-1.829-0.399-3.412V59.985l0.249-9.046c0-3.188-0.43-5.722-1.284-7.565
				c-1.261-2.634-3.171-4.663-5.745-6.084c-2.57-1.405-5.744-2.126-9.506-2.126c-2.549,0-4.838,0.348-6.881,1.043
				c-2.676,0.951-6.111,2.798-10.303,5.539c0.039,0.823,0.051,1.929,0.051,3.316c0,1.313-0.012,2.356-0.051,3.103l2.627,0.709
				c0.417-1.123,1.086-2.672,1.971-4.659l0.894-1.777c0.327-0.37,1.231-0.808,2.683-1.34c1.473-0.527,3.172-0.784,5.135-0.784
				c2.693,0,4.983,0.557,6.865,1.676c1.866,1.128,3.21,2.566,3.998,4.307c0.802,1.741,1.169,4.191,1.137,7.31
				c-4.217,0.496-8.486,1.263-12.775,2.28c-4.297,1.014-7.409,1.978-9.31,2.872c-1.124,0.526-2.237,1.338-3.314,2.445
				c-1.104,1.094-2.028,2.591-2.8,4.482c-0.781,1.864-1.162,3.949-1.162,6.214c0,3.527,1.113,6.361,3.339,8.485
				C121.188,82.507,124.301,83.567,128.293,83.567z M125.621,64.337c0.566-1.126,1.218-1.969,1.971-2.521
				c1.256-0.949,3.394-1.875,6.425-2.774c3.044-0.885,6.692-1.698,10.978-2.416v13.349c-2.131,2.532-4.285,4.455-6.441,5.71
				c-2.164,1.263-4.358,1.905-6.556,1.905c-2.405,0-4.292-0.69-5.638-2.048c-1.354-1.376-2.027-3.271-2.027-5.722
				C124.332,67.82,124.771,65.981,125.621,64.337z"/>
			<path d="M174.16,80.758c3.132,1.842,6.548,2.751,10.282,2.751c2.013,0,4.335-0.316,6.97-0.97c1.242-1.23,2.982-2.796,5.219-4.694
				c2.227-1.922,3.997-3.343,5.309-4.305c-0.066,3.848-0.143,6.92-0.247,9.192c4.378-0.233,6.958-0.348,8.37-0.348
				c1.654,0,4.49,0.115,8.51,0.348V80.07c-3.432-0.307-5.476-0.604-6.183-0.905c-0.692-0.283-1.172-0.677-1.468-1.158
				c-0.312-0.478-0.513-1.944-0.635-4.4c-0.112-2.447-0.169-5.363-0.169-8.722V33.922l0.206-7.905
				c0.16-8.006,0.306-13.418,0.434-16.21l-0.64-0.449c-2.407,0.787-4.54,1.463-7.06,2.013c-2.525,0.542-5.611,1.008-9.273,1.403
				v2.808c3.886,0.037,6.168,0.211,6.818,0.49c0.373,0.184,0.622,0.435,0.742,0.805c0.392,0.995,0.594,3.778,0.594,8.35v13.004
				c-1.878-1.056-3.803-1.83-5.795-2.341c-1.998-0.505-4.042-0.773-6.11-0.773c-2.317,0-4.45,0.425-6.403,1.261
				c-1.963,0.837-4.536,2.2-7.696,4.082c-3.156,1.876-5.187,3.271-6.091,4.202c-1.568,1.621-2.875,3.894-3.925,6.849
				c-1.036,2.95-1.56,6.08-1.56,9.366c0,4.387,0.848,8.337,2.564,11.838C168.619,76.231,171.029,78.912,174.16,80.758z
				 M174.975,47.914c1.205-2.794,2.943-4.889,5.212-6.271c2.28-1.378,4.76-2.068,7.466-2.068c2.382,0,4.794,0.566,7.244,1.7
				c2.459,1.142,4.8,2.933,7.043,5.415v8.43c0,5.698-0.129,9.27-0.385,10.723c-0.363,2.174-1.214,4.144-2.525,5.918
				c-1.336,1.784-2.867,3.131-4.613,4.058c-1.752,0.92-3.725,1.386-5.918,1.386c-4.237,0-7.842-1.707-10.84-5.096
				c-2.992-3.397-4.49-8.099-4.49-14.12C173.168,54.077,173.775,50.709,174.975,47.914z"/>
			<path d="M276.701,79.907c-3.438-0.058-5.255-0.108-5.455-0.145c-0.528-0.129-0.92-0.301-1.188-0.513
				c-0.25-0.222-0.46-0.47-0.627-0.773c-0.327-0.754-0.52-1.957-0.537-3.613c-0.031-0.689-0.127-3.024-0.25-7.01l-0.107-6.875
				v-6.776c0-1.88,0.099-5.508,0.289-10.881c0.117-3.124,0.219-5.22,0.314-6.268c0.033-0.402,0.047-0.722,0.047-1.003
				c0-0.319-0.074-0.569-0.225-0.724c-0.152-0.179-0.342-0.259-0.565-0.259c-0.304,0-0.704,0.155-1.228,0.445
				c-3.197,1.751-8.323,3.019-15.395,3.808v2.817c1.068,0.026,2.494,0.047,4.303,0.047c1.246,0,2.131,0.176,2.627,0.495
				c0.293,0.203,0.51,0.464,0.645,0.793c0.23,0.667,0.375,2.089,0.439,4.26c0.098,3.457,0.152,5.621,0.152,6.471v4.164
				c0,2.854-0.086,5.75-0.251,8.647c-0.056,0.986-0.22,1.734-0.451,2.25c-0.228,0.501-0.702,1.237-1.436,2.19
				c-0.948,1.289-1.896,2.301-2.815,3.068c-1.254,1.021-2.664,1.805-4.23,2.344c-1.574,0.549-3.141,0.823-4.713,0.823
				c-2.314,0-4.255-0.48-5.822-1.457c-1.558-0.976-2.611-2.268-3.152-3.901c-0.547-1.633-0.811-4.455-0.811-8.49v-9.638
				c0-1.88,0.09-5.572,0.298-11.072c0.097-2.994,0.2-5.029,0.344-6.077c0.019-0.402,0.048-0.722,0.048-1.003
				c0-0.319-0.09-0.569-0.236-0.724c-0.138-0.179-0.32-0.259-0.559-0.259c-0.303,0-0.709,0.155-1.244,0.445
				c-3.193,1.751-8.336,3.019-15.404,3.808v2.817c1.041,0.026,2.479,0.047,4.289,0.047c1.249,0,2.125,0.176,2.617,0.495
				c0.299,0.203,0.51,0.464,0.643,0.793c0.234,0.667,0.379,2.089,0.443,4.26c0.108,3.457,0.152,5.621,0.152,6.471v8.46
				c0,0.987-0.039,1.992-0.113,3.023c-0.096,1.005-0.127,2.088-0.127,3.254c0,2.439,0.244,4.52,0.763,6.253
				c0.515,1.725,1.251,3.143,2.219,4.23c1.281,1.492,2.814,2.585,4.612,3.31c1.803,0.712,4.027,1.086,6.702,1.086
				c1.974,0,3.672-0.174,5.077-0.515c1.418-0.351,2.842-0.919,4.253-1.708c0.589-0.302,1.2-0.762,1.833-1.386
				c2.734-2.729,5.086-4.895,7.072-6.48c-0.104,3.338-0.251,6.34-0.443,9.003c2.502-0.233,4.97-0.348,7.408-0.348
				c2.216,0,5.471,0.115,9.795,0.348V79.907z"/>
			<path d="M294.949,83.567c1.906,0,3.492-0.314,4.746-0.961c1.236-0.646,5.223-3.502,11.959-8.58l-0.243,8.707
				c3.293-0.233,5.932-0.348,7.912-0.348c2.041,0,4.421,0.115,7.112,0.348v-2.826l-3.206-0.287
				c-1.054-0.068-1.745-0.197-2.075-0.398c-0.439-0.236-0.742-0.593-0.941-1.092c-0.267-0.685-0.396-1.829-0.396-3.412V59.985
				l0.246-9.046c0-3.188-0.43-5.722-1.291-7.565c-1.25-2.634-3.164-4.663-5.736-6.084c-2.572-1.405-5.75-2.126-9.514-2.126
				c-2.539,0-4.834,0.348-6.879,1.043c-2.664,0.951-6.113,2.798-10.295,5.539c0.031,0.823,0.045,1.929,0.045,3.316
				c0,1.313-0.014,2.356-0.045,3.103l2.621,0.709c0.416-1.123,1.091-2.672,1.969-4.659l0.887-1.777c0.34-0.37,1.24-0.808,2.688-1.34
				c1.473-0.527,3.182-0.784,5.129-0.784c2.71,0,4.992,0.557,6.877,1.676c1.871,1.128,3.217,2.566,4.001,4.307
				c0.802,1.741,1.169,4.191,1.136,7.31c-4.215,0.496-8.481,1.263-12.777,2.28c-4.307,1.014-7.408,1.978-9.307,2.872
				c-1.129,0.526-2.232,1.338-3.314,2.445c-1.095,1.094-2.035,2.591-2.803,4.482c-0.785,1.864-1.158,3.949-1.158,6.214
				c0,3.527,1.112,6.361,3.326,8.485C287.852,82.507,290.955,83.567,294.949,83.567z M292.275,64.337
				c0.557-1.126,1.218-1.969,1.978-2.521c1.249-0.949,3.396-1.875,6.425-2.774c3.039-0.885,6.689-1.698,10.977-2.416v13.349
				c-2.141,2.532-4.293,4.455-6.455,5.71c-2.152,1.263-4.338,1.905-6.557,1.905c-2.398,0-4.277-0.69-5.618-2.048
				c-1.36-1.376-2.038-3.271-2.038-5.722C290.986,67.82,291.422,65.981,292.275,64.337z"/>
			<path d="M389.348,82.733v-2.826c-3.447-0.058-5.279-0.108-5.465-0.145c-0.53-0.129-0.928-0.301-1.191-0.513
				c-0.27-0.222-0.466-0.47-0.651-0.773c-0.323-0.754-0.497-1.957-0.536-3.613c-0.029-0.689-0.121-5.312-0.289-13.886v-8.999
				c0-3.719,0.125-9.098,0.385-16.116l-1.078-0.796c-4.363,2.05-9.735,3.435-16.121,4.159v2.816c3.883,0,6.082,0.117,6.588,0.375
				c0.519,0.248,0.873,0.609,1.063,1.11c0.335,0.922,0.507,3.83,0.507,8.749v8.703c-0.172,9.032-0.251,13.757-0.251,14.192
				c-0.095,1.67-0.337,2.849-0.7,3.502c-0.193,0.334-0.485,0.616-0.867,0.819c-0.383,0.214-0.912,0.344-1.621,0.378l-4.719,0.039
				v2.826c5.986-0.233,10.315-0.348,12.954-0.348C380.351,82.385,384.352,82.5,389.348,82.733z"/>
			<path d="M411.563,79.25c-0.284-0.222-0.477-0.47-0.609-0.773c-0.325-0.754-0.539-1.964-0.599-3.613
				c0-0.69-0.086-5.318-0.246-13.886v-5.989c0-3.616,0.445-6.2,1.311-7.73c0.877-1.531,2.327-2.898,4.377-4.055
				c2.039-1.174,4.306-1.759,6.771-1.759c2.791,0,5.186,0.673,7.174,2.026c1.981,1.359,3.249,3.129,3.801,5.345
				c0.4,1.618,0.602,5.011,0.602,10.174v8.318c0,2.133-0.238,7.284-0.697,15.424c4.289-0.233,7.352-0.348,9.201-0.348
				c2.145,0,4.831,0.115,8.061,0.348v-2.826l-5.301-0.145c-0.717-0.1-1.248-0.339-1.597-0.716c-0.351-0.375-0.606-1.063-0.772-2.049
				c-0.223-1.546-0.344-4.473-0.344-8.753v-8.75c0-6.786-0.115-10.936-0.348-12.41c-0.4-2.498-1.201-4.579-2.402-6.231
				c-1.201-1.644-3.004-3.02-5.383-4.107c-2.393-1.089-4.921-1.628-7.594-1.628c-2.406,0-4.959,0.486-7.657,1.489l-9.202,7.861
				c0.099-3.828,0.197-6.332,0.288-7.522c0.046-0.295,0.056-0.556,0.056-0.788c0-0.323-0.068-0.583-0.199-0.742
				c-0.13-0.16-0.308-0.253-0.535-0.253c-0.236,0-0.683,0.181-1.338,0.493c-3.062,1.488-7.922,2.688-14.582,3.616v2.815
				c3.752-0.033,5.903,0.041,6.425,0.225c0.534,0.186,0.888,0.449,1.106,0.817c0.227,0.361,0.377,1.519,0.479,3.455
				c0.096,3.04,0.138,5.869,0.138,8.504v5.889c-0.158,9.032-0.239,13.757-0.239,14.192c-0.104,1.67-0.328,2.849-0.699,3.502
				c-0.192,0.334-0.479,0.616-0.861,0.819c-0.387,0.214-0.926,0.344-1.62,0.378l-4.728,0.039v2.826
				c6.261-0.233,10.77-0.348,13.547-0.348c3.266,0,6.906,0.115,10.92,0.348v-2.826c-3.438-0.058-5.265-0.108-5.471-0.145
				C412.242,79.634,411.825,79.461,411.563,79.25z"/>
			<path d="M504.658,39.956l-0.391-0.933c-3.334,0.104-8.086,0.172-14.291,0.203c-1.814-1.459-3.734-2.541-5.755-3.261
				c-2.022-0.718-4.164-1.092-6.401-1.092c-3.468,0-7.219,0.83-11.269,2.487c-4.056,1.664-6.943,3.824-8.668,6.475
				c-1.708,2.642-2.569,5.652-2.569,9.015c0,2.26,0.448,4.349,1.341,6.234c0.894,1.896,2.138,3.394,3.734,4.497
				c1.599,1.105,3.88,2.063,6.849,2.88c-3.455,2.482-6.013,4.384-7.617,5.735c-0.992,2.913-1.479,4.685-1.479,5.345
				c0,0.798,0.383,1.58,1.158,2.369c0.775,0.787,2.52,1.641,5.261,2.525c-1.747,1.387-4.623,3.005-8.641,4.847
				c-1.05,1.451-1.816,2.804-2.263,4.088c-0.445,1.257-0.648,2.629-0.648,4.068c0,2.605,0.756,5.106,2.277,7.467
				c1.543,2.369,3.909,4.27,7.104,5.685c3.201,1.421,7.069,2.12,11.625,2.12c5.435,0,10.342-1.001,14.714-3.029
				c4.395-2.04,7.701-4.806,9.924-8.324c2.234-3.514,3.332-6.964,3.332-10.378c0-2.51-0.462-4.758-1.38-6.751
				c-0.923-2.003-2.341-3.477-4.287-4.458c-1.914-0.979-4.739-1.465-8.466-1.465l-10.669,0.258c-3.8,0-6.439-0.223-7.917-0.636
				c-0.986-0.23-1.729-0.663-2.211-1.273c-0.469-0.601-0.711-1.297-0.711-2.092c0-0.681,0.188-1.325,0.539-1.902
				c0.576-0.866,1.925-2.137,4.062-3.847c3.129,0.063,5.624-0.102,7.465-0.482c2.832-0.596,5.514-1.748,8.016-3.441
				c2.502-1.692,4.404-3.718,5.709-6.117c1.295-2.378,1.95-4.824,1.95-7.326c0-1.711-0.38-3.536-1.142-5.465h9.19
				C502.532,43.238,503.379,41.917,504.658,39.956z M466.94,84.458c0.792-0.561,1.502-0.891,2.122-0.994
				c1.252-0.122,4.34-0.185,9.252-0.185c5.641,0.028,8.86,0.091,9.634,0.185c1.351,0.407,2.425,0.917,3.192,1.54
				c0.77,0.623,1.436,1.48,1.984,2.579c0.541,1.086,0.859,2.686,0.962,4.803c0,2.42-0.745,4.859-2.202,7.288
				c-1.462,2.414-3.631,4.327-6.527,5.74c-2.885,1.383-6.07,2.083-9.562,2.083c-4.723,0-8.417-1.193-11.098-3.578
				c-2.694-2.393-4.028-5.319-4.028-8.778c0-1.882,0.331-3.74,1.032-5.586c0.393-1.023,0.76-1.705,1.082-2.025
				C462.951,87.322,464.346,86.309,466.94,84.458z M482.32,60.858c-2.183,1.827-4.684,2.743-7.52,2.743
				c-2.17,0-4.111-0.562-5.802-1.677c-1.697-1.122-2.993-2.785-3.864-4.995c-0.871-2.204-1.307-4.47-1.307-6.805
				c0-3.714,0.975-6.582,2.908-8.611c1.958-2.023,4.516-3.038,7.722-3.038c3.06,0,5.68,1.237,7.862,3.675
				c2.164,2.46,3.262,5.759,3.262,9.89C485.582,56.083,484.484,59.033,482.32,60.858z"/>
			<path d="M31.875,180.848c-13.751,0-19.75-10.944-21.878-17.549l-3.872,0.763c0.801,5.204,2.545,14.507,3.604,16.786
				c1.203,0.543,3.205,1.301,6.53,2.289c3.349,0.746,7.604,1.613,13.085,1.613c17.738,0,29.293-9.74,29.293-21.113
				c0-12.138-12.671-16.411-22.814-21.252c-8.684-4.155-17.102-7.782-17.102-15.686c0-5.848,4.756-11.92,15.016-11.92
				c11.607,0,15.072,7.485,17.473,14.404l3.866-0.648c-1.066-6.82-1.726-11.037-2.267-14.941
				c-5.064-1.304-10.668-2.497-16.801-2.497c-17.209,0-27.469,8.886-27.469,19.287c0,12.233,15.058,17.463,23.59,21.141
				c10.012,4.334,16.08,7.043,16.188,15.672C48.419,175.115,41.875,180.848,31.875,180.848z"/>
			<path d="M124.877,183.693c1.405-0.349,2.829-0.918,4.236-1.701c0.603-0.302,1.211-0.764,1.832-1.39
				c2.732-2.731,5.092-4.892,7.078-6.479c-0.1,3.332-0.252,6.333-0.444,9.013c2.499-0.243,4.976-0.361,7.415-0.361
				c2.212,0,5.467,0.118,9.795,0.361v-2.835c-3.447-0.068-5.259-0.11-5.459-0.139c-0.518-0.134-0.922-0.312-1.184-0.521
				c-0.258-0.208-0.477-0.483-0.629-0.76c-0.324-0.772-0.52-1.975-0.555-3.611c-0.026-0.693-0.113-3.031-0.24-7.034l-0.092-6.858
				v-6.785c0-1.87,0.084-5.508,0.27-10.873c0.12-3.138,0.235-5.223,0.316-6.275c0.042-0.396,0.049-0.733,0.049-0.997
				c0-0.333-0.068-0.571-0.229-0.747c-0.139-0.161-0.33-0.24-0.562-0.24c-0.299,0-0.689,0.137-1.235,0.453
				c-3.185,1.736-8.319,3.007-15.38,3.799v2.817c1.053,0.03,2.492,0.047,4.307,0.047c1.254,0,2.137,0.163,2.623,0.499
				c0.3,0.192,0.507,0.464,0.637,0.784c0.229,0.672,0.381,2.079,0.441,4.25c0.109,3.468,0.156,5.631,0.156,6.482v4.16
				c0,2.858-0.076,5.747-0.252,8.651c-0.062,0.987-0.215,1.728-0.441,2.25c-0.233,0.51-0.717,1.231-1.448,2.202
				c-0.944,1.266-1.903,2.29-2.812,3.048c-1.256,1.03-2.662,1.818-4.221,2.369c-1.566,0.534-3.15,0.807-4.729,0.807
				c-2.301,0-4.239-0.491-5.804-1.451c-1.563-0.985-2.616-2.278-3.168-3.921c-0.536-1.621-0.819-4.453-0.819-8.465v-9.65
				c0-1.87,0.094-5.564,0.31-11.066c0.104-3,0.206-5.029,0.339-6.082c0.037-0.396,0.045-0.733,0.045-0.997
				c0-0.333-0.066-0.571-0.217-0.747c-0.137-0.161-0.332-0.24-0.563-0.24c-0.294,0-0.706,0.137-1.234,0.453
				c-3.19,1.736-8.34,3.007-15.43,3.799v2.817c1.056,0.03,2.485,0.047,4.298,0.047c1.255,0,2.127,0.163,2.621,0.499
				c0.304,0.192,0.514,0.464,0.645,0.784c0.236,0.672,0.381,2.079,0.449,4.25c0.094,3.468,0.141,5.631,0.141,6.482v8.457
				c0,0.991-0.031,1.989-0.115,3.01c-0.081,1.032-0.121,2.109-0.121,3.271c0,2.439,0.246,4.529,0.769,6.253
				c0.5,1.727,1.246,3.139,2.214,4.224c1.278,1.483,2.826,2.595,4.613,3.33c1.801,0.712,4.025,1.081,6.701,1.081
				C121.758,184.217,123.469,184.037,124.877,183.693z"/>
			<path d="M212.57,180.457c-3.432-0.294-5.49-0.592-6.182-0.901c-0.693-0.285-1.184-0.673-1.481-1.149
				c-0.296-0.479-0.504-1.953-0.616-4.4c-0.127-2.462-0.188-5.371-0.188-8.724v-30.958l0.217-7.91
				c0.155-8.005,0.309-13.418,0.435-16.225l-0.651-0.433c-2.388,0.788-4.526,1.449-7.048,1.989c-2.53,0.554-5.62,1.023-9.279,1.416
				v2.816c3.887,0.035,6.168,0.19,6.828,0.501c0.361,0.162,0.611,0.42,0.743,0.784c0.388,0.979,0.603,3.77,0.603,8.358v13.006
				c-1.896-1.057-3.825-1.837-5.817-2.356c-1.994-0.507-4.03-0.76-6.109-0.76c-2.312,0-4.452,0.426-6.4,1.26
				c-1.966,0.846-4.526,2.198-7.69,4.083c-3.166,1.869-5.189,3.283-6.084,4.207c-1.578,1.612-2.888,3.897-3.932,6.841
				c-1.039,2.961-1.553,6.072-1.553,9.366c0,4.393,0.842,8.334,2.548,11.847c1.696,3.515,4.112,6.191,7.239,8.029
				c3.133,1.848,6.563,2.769,10.289,2.769c2.014,0,4.333-0.331,6.963-0.98c1.245-1.222,2.998-2.792,5.215-4.704
				c2.234-1.909,4.01-3.346,5.332-4.307c-0.073,3.866-0.161,6.927-0.258,9.216c4.387-0.243,6.959-0.361,8.366-0.361
				c1.646,0,4.485,0.118,8.513,0.361V180.457z M195.949,155.514c0,5.688-0.144,9.263-0.403,10.717
				c-0.364,2.17-1.212,4.14-2.526,5.919c-1.315,1.783-2.87,3.133-4.599,4.054c-1.739,0.928-3.737,1.376-5.933,1.376
				c-4.223,0-7.827-1.688-10.828-5.084c-3.001-3.391-4.498-8.093-4.498-14.114c0-3.92,0.602-7.271,1.812-10.071
				c1.2-2.805,2.933-4.89,5.222-6.273c2.26-1.389,4.756-2.082,7.457-2.082c2.37,0,4.787,0.57,7.24,1.708
				c2.455,1.127,4.803,2.945,7.057,5.405V155.514z"/>
			<path d="M250.99,137.784c-2.991-1.684-6.323-2.514-10.018-2.514c-3.032,0-5.848,0.54-8.46,1.621
				c-1.968,0.786-3.966,1.878-5.983,3.248c-2.017,1.36-3.49,2.573-4.447,3.627c-1.326,1.452-2.502,3.704-3.532,6.764
				c-1.042,3.037-1.556,6.455-1.556,10.246c0,4.844,0.977,9.065,2.936,12.679c1.959,3.613,4.712,6.315,8.236,8.138
				c3.523,1.815,7.465,2.718,11.812,2.718c2.21,0,4.314-0.243,6.312-0.72c1.984-0.469,3.759-1.058,5.308-1.763
				c1.066-0.458,2.718-1.395,5-2.819l1.588-3.558l-0.805-0.841c-2.924,1.735-5.393,2.931-7.387,3.583
				c-1.995,0.66-3.994,0.965-6.01,0.965c-2.96,0-5.824-0.682-8.566-2.071c-2.758-1.382-4.921-3.54-6.486-6.46
				c-1.57-2.938-2.377-6.759-2.449-11.487h15.847c3.542,0,7.11-0.129,10.665-0.387c1.873-0.13,4.002-0.429,6.378-0.9
				c0.163-1.318,0.242-2.426,0.242-3.364c0-3.651-0.7-6.93-2.079-9.825C256.152,141.752,253.967,139.458,250.99,137.784z
				 M250.512,155.539c-1.389,0.161-4.263,0.24-8.65,0.24c-1.846,0-5.227-0.08-10.135-0.24c-2.566-0.092-4.322-0.205-5.244-0.314
				c0.031-5.755,1.194-9.98,3.463-12.647c2.273-2.674,5.28-4.003,9-4.003c3.521,0,6.348,1.223,8.454,3.655
				c2.114,2.449,3.167,6.272,3.167,11.471C250.566,154.136,250.545,154.739,250.512,155.539z"/>
			<path d="M283.383,179.641c-0.258-0.208-0.457-0.483-0.59-0.76c-0.331-0.772-0.522-1.975-0.604-3.611
				c0-0.693-0.087-5.335-0.234-13.898v-5.976c0-3.634,0.427-6.217,1.295-7.754c0.875-1.529,2.334-2.876,4.382-4.051
				c2.04-1.161,4.31-1.743,6.769-1.743c2.799,0,5.195,0.671,7.17,2.013c1.979,1.358,3.24,3.131,3.811,5.352
				c0.396,1.605,0.596,5.004,0.596,10.178v8.302c0,2.143-0.234,7.306-0.682,15.445c4.264-0.243,7.338-0.361,9.183-0.361
				c2.141,0,4.836,0.118,8.056,0.361v-2.835l-5.289-0.139c-0.728-0.102-1.25-0.336-1.605-0.721
				c-0.347-0.388-0.605-1.063-0.766-2.054c-0.236-1.543-0.344-4.459-0.344-8.751v-8.748c0-6.792-0.108-10.924-0.355-12.408
				c-0.394-2.511-1.193-4.581-2.378-6.23c-1.224-1.646-3.005-3.024-5.397-4.108c-2.4-1.085-4.928-1.632-7.592-1.632
				c-2.408,0-4.961,0.497-7.658,1.482l-9.193,7.864c0.088-3.827,0.189-6.331,0.281-7.52c0.039-0.288,0.048-0.559,0.048-0.792
				c0-0.325-0.057-0.57-0.186-0.734c-0.144-0.175-0.314-0.254-0.554-0.254c-0.22,0-0.668,0.163-1.334,0.501
				c-3.059,1.493-7.925,2.683-14.578,3.616v2.81c3.754-0.027,5.887,0.042,6.418,0.225c0.535,0.183,0.904,0.448,1.113,0.82
				c0.213,0.348,0.375,1.514,0.473,3.448c0.108,3.043,0.148,5.872,0.148,8.518v5.885c-0.166,9.016-0.246,13.76-0.246,14.182
				c-0.095,1.681-0.334,2.854-0.7,3.508c-0.189,0.341-0.483,0.612-0.874,0.816c-0.375,0.218-0.912,0.339-1.607,0.366l-4.725,0.052
				v2.835c6.27-0.243,10.781-0.361,13.543-0.361c3.271,0,6.908,0.118,10.93,0.361v-2.835c-3.451-0.068-5.279-0.11-5.47-0.139
				C284.072,180.028,283.65,179.85,283.383,179.641z"/>
			<path d="M55.923,275.539c-0.385,1.754-0.787,3.131-1.183,4.16c-1.513,0.616-3.152,1.064-4.931,1.333
				c-1.782,0.256-4.761,0.384-8.944,0.384c-5.887,0-12.748-0.178-17.484-0.543c-0.165-3.156-0.242-7.796-0.242-13.896
				c0-6.484,0.077-11.38,0.242-14.676c4.052-0.16,8.73-0.255,10.93-0.255c5.408,0,9.057,0.21,10.932,0.602
				c1.055,0.233,1.774,0.646,2.154,1.234c0.387,0.601,0.597,1.453,0.666,3.899l0.143,3.356h3.469l-0.252-10.872l0.252-9.637v-0.923
				h-2.965l-0.301,3.465c-0.229,2.292-0.492,3.002-0.801,3.387c-0.286,0.396-0.963,0.672-2.012,0.795
				c-2.773,0.371-6.119,0.549-10.037,0.549c-3.227,0-8.322-0.115-12.178-0.349l0.205-16.645c0.066-3.192,0.164-6.611,0.293-10.246
				c1.184-0.103,4.693-0.229,7.424-0.358c2.738-0.118,4.498-0.181,5.288-0.181c3.695,0,7.38,0.212,11.079,0.68
				c2.176,0.264,4.178,0.774,5.975,1.539c0.461,2.771,0.684,5.826,0.645,9.196h3.115c0.534-6.555,0.821-9.993,0.896-10.288
				c0.194-1.389,0.558-3.021,1.09-4.885c-2.906-0.373-5.998-0.552-9.253-0.552c-3.227,0-8.429,0.048-15.573,0.144l-16.692,0.248
				l-14.09-0.294v3.161c3.933,0.059,6.306,0.244,7.146,0.518c0.844,0.273,1.453,0.707,1.832,1.285
				c0.371,0.576,0.607,2.422,0.709,5.554c0.119,4.275,0.151,8.657,0.151,13.12v25.24c0,3.158-0.091,6.91-0.296,11.26
				c-0.127,2.795-0.353,4.523-0.688,5.177c-0.203,0.434-0.537,0.748-0.991,0.938c-1.081,0.496-3.364,0.757-6.817,0.784v3.167
				c8.201-0.224,12.528-0.347,13.169-0.347l31.269,0.347c3.837,0,7.284-0.208,10.125-0.645c0-4.38,0.42-9.896,1.281-16.56h-3.317
				C57.123,270.391,56.646,272.6,55.923,275.539z"/>
			<path d="M168.26,282.688c-0.266-0.224-0.455-0.493-0.591-0.815c-0.344-0.728-0.529-1.88-0.601-3.462
				c0-0.537-0.043-2.914-0.124-7.173l-0.13-6.819v-8.705c0-4.26-0.521-7.471-1.582-9.646c-1.049-2.175-2.932-3.982-5.65-5.422
				c-2.721-1.42-5.583-2.14-8.613-2.14c-1.614,0-3.271,0.233-4.988,0.697c-1.248,0.319-2.184,0.657-2.805,0.993
				c-0.364,0.188-0.854,0.584-1.495,1.183c-0.384,0.351-1.659,1.48-3.792,3.362c-2.139,1.871-3.442,3-3.896,3.352v-14.431
				l0.086-7.71c0.025-4.16,0.113-9.179,0.27-15.084l0.054-1.626c0.045-0.427,0.091-0.763,0.091-0.999
				c0-0.265-0.078-0.465-0.203-0.602c-0.144-0.16-0.314-0.243-0.549-0.243c-0.238,0-0.555,0.112-0.983,0.308
				c-2.907,1.377-8.073,2.535-15.528,3.453v2.926c4.078,0,6.371,0.119,6.859,0.346c0.368,0.125,0.641,0.363,0.803,0.691
				c0.233,0.463,0.426,2.664,0.543,6.624c0.166,5.858,0.242,11.549,0.242,17.056v25.564c-0.191,9.031-0.303,13.762-0.336,14.184
				c-0.062,1.691-0.278,2.852-0.646,3.52c-0.193,0.328-0.483,0.602-0.861,0.809c-0.389,0.236-0.935,0.35-1.658,0.381l-4.658,0.043
				v2.813c6.531-0.224,10.769-0.347,12.718-0.347c2.237,0,6.29,0.123,12.157,0.347v-2.813c-3.447-0.061-5.288-0.108-5.523-0.143
				c-0.529-0.103-0.926-0.266-1.188-0.471c-0.27-0.224-0.474-0.493-0.605-0.815c-0.326-0.76-0.519-1.963-0.582-3.615
				c-0.031-0.692-0.125-5.305-0.26-13.841v-5.795c0-2.545,0.07-4.229,0.207-5.067c0.127-0.839,0.391-1.558,0.783-2.149
				c0.822-1.221,1.835-2.357,3.021-3.42c1.187-1.056,2.484-1.833,3.901-2.357c1.427-0.531,3.024-0.791,4.853-0.791
				c2.869,0,5.163,0.669,6.891,2.008c1.732,1.332,2.879,2.838,3.438,4.512c0.565,1.682,0.837,4.431,0.837,8.256v12.27
				c0,4.612-0.223,9.357-0.688,14.233c4.52-0.158,7.497-0.235,8.95-0.235c1.712,0,4.444,0.077,8.199,0.235v-2.813
				c-3.243-0.061-4.97-0.108-5.169-0.143C168.93,283.056,168.522,282.893,168.26,282.688z"/>
			<path d="M200.582,282.645c-0.268-0.226-0.482-0.481-0.64-0.772c-0.335-0.76-0.521-1.963-0.55-3.615
				c-0.035-0.688-0.129-5.315-0.294-13.892v-8.998c0-3.73,0.128-9.094,0.401-16.117l-1.1-0.798
				c-4.354,2.048-9.723,3.438-16.102,4.157v2.812c3.883,0,6.077,0.128,6.588,0.379c0.506,0.246,0.867,0.615,1.061,1.11
				c0.336,0.917,0.504,3.839,0.504,8.749v8.705c-0.168,9.031-0.246,13.762-0.246,14.184c-0.113,1.691-0.338,2.852-0.705,3.52
				c-0.201,0.328-0.482,0.602-0.863,0.809c-0.385,0.236-0.93,0.35-1.626,0.381l-4.712,0.043v2.813
				c5.988-0.224,10.298-0.347,12.928-0.347c3.015,0,7.012,0.123,12.026,0.347v-2.813c-3.452-0.061-5.28-0.108-5.491-0.143
				C201.24,283.023,200.841,282.849,200.582,282.645z"/>
			<path d="M198.256,225.992c1.088-1.09,1.634-2.385,1.634-3.903c0-1.547-0.546-2.858-1.608-3.96
				c-1.068-1.082-2.382-1.627-3.932-1.627c-1.541,0-2.875,0.545-3.954,1.627c-1.085,1.102-1.635,2.413-1.635,3.96
				c0,1.519,0.55,2.813,1.635,3.903c1.079,1.086,2.413,1.635,3.954,1.635C195.864,227.627,197.167,227.078,198.256,225.992z"/>
			<path d="M252.583,241.053c-2.81-1.697-6.021-2.548-9.647-2.548c-2.304,0-4.487,0.364-6.521,1.093
				c-2.054,0.725-3.515,1.461-4.41,2.226l-6.821,6.675v-9.785l0.096-7.693c0.041-4.157,0.14-9.169,0.311-15.068l0.045-1.625
				c0.058-0.426,0.096-0.749,0.096-0.997c0-0.249-0.072-0.462-0.206-0.602c-0.118-0.153-0.315-0.226-0.54-0.226
				c-0.227,0-0.562,0.094-0.98,0.299c-2.907,1.386-7.642,2.533-15.096,3.467v2.9c4.08,0,5.938,0.123,6.438,0.355
				c0.357,0.133,0.626,0.35,0.795,0.689c0.228,0.467,0.396,2.674,0.531,6.621c0.167,5.862,0.252,11.541,0.252,17.04v21.981
				c0,1.258-0.101,5.459-0.298,12.609c-0.029,1.088-0.244,3.698-0.643,7.848l1.634,0.645l4.008-3.75
				c2.12,1.473,4.104,2.498,5.98,3.105c1.89,0.598,3.925,0.887,6.14,0.887c2.571,0,4.674-0.303,6.318-0.92
				c1.65-0.606,3.939-1.988,6.873-4.165l7.219-5.19c0.698-0.57,1.533-1.613,2.528-3.167c1.348-2.036,2.457-4.367,3.313-6.972
				c0.842-2.6,1.287-5.351,1.287-8.259c0-3.763-0.75-7.183-2.252-10.284C257.527,245.148,255.379,242.754,252.583,241.053z
				 M248.777,276.231c-2.581,3.692-6.252,5.538-11.036,5.538c-2.038,0-3.981-0.354-5.81-1.043c-1.832-0.691-3.44-1.615-4.812-2.768
				c-0.914-0.748-1.485-1.354-1.659-1.822c-0.199-0.467-0.277-1.521-0.277-3.166v-18.538c0.824-2.682,2.471-4.905,4.951-6.709
				c2.462-1.8,5.269-2.694,8.402-2.694c2.676,0,5.074,0.653,7.221,1.951c2.153,1.307,3.818,3.252,5.035,5.865
				c1.229,2.613,1.828,5.836,1.828,9.691C252.621,267.982,251.333,272.535,248.777,276.231z"/>
			<path d="M313.035,245.956c3.083-0.04,5.506-0.058,7.258-0.058c1.758,0,3.664,0.018,5.734,0.058l1.039-4.592l-0.345-0.354
				c-0.862,0.098-2.134,0.166-3.858,0.197c-3.095,0.066-4.791,0.102-5.09,0.102c-0.523,0-2.111-0.014-4.738-0.049
				c0.42-9.327,0.818-14.064,1.18-16.795l-1.18-0.994c-2.155,1.365-4.941,2.627-8.357,3.804c0,2.183,0,5.888,0,13.735
				c-1.885,0.98-4.409,2.108-7.562,3.369v2.061c2.033-0.154,3.881-0.232,5.527-0.232h2.035v21.813c0,0.62-0.021,1.198-0.055,1.735
				c-0.105,2.662-0.18,5.125-0.193,7.369c0.153,2.328,0.525,4.048,1.092,5.139c0.576,1.08,1.279,1.981,2.135,2.692
				c0.857,0.71,1.799,1.263,2.842,1.651c1.041,0.399,2.43,0.592,4.18,0.592c1.412,0,2.665-0.07,3.74-0.215
				c1.098-0.153,2.261-0.461,3.514-0.928c1.441-1.308,2.949-2.562,4.504-3.793l-0.605-1.926c-1.268,0.461-2.328,0.744-3.172,0.855
				c-0.835,0.133-1.931,0.186-3.285,0.186c-1.773-0.244-3.018-0.566-3.756-0.998c-0.741-0.424-1.344-0.996-1.793-1.703
				c-0.474-0.719-0.785-1.539-0.945-2.499c-0.168-0.958-0.203-3.886-0.111-8.806L313.035,245.956z"/>
			<path d="M70.715,142.81v21.828c0,0.612-0.025,1.205-0.053,1.724c-0.101,2.668-0.163,5.122-0.197,7.363
				c0.164,2.348,0.541,4.056,1.1,5.147c0.574,1.09,1.275,1.983,2.146,2.698c0.85,0.709,1.799,1.258,2.831,1.658
				c1.04,0.393,2.435,0.595,4.169,0.595c1.424,0,2.673-0.076,3.764-0.233c1.086-0.148,2.242-0.444,3.504-0.909
				c1.442-1.321,2.933-2.586,4.501-3.81l-0.606-1.931c-1.279,0.461-2.329,0.75-3.172,0.863c-0.848,0.123-1.923,0.175-3.27,0.175
				c-1.787-0.228-3.041-0.559-3.772-0.993c-0.753-0.419-1.344-0.994-1.806-1.7c-0.456-0.709-0.774-1.552-0.938-2.495
				c-0.162-0.96-0.184-3.891-0.092-8.809l0.242-21.423c3.104-0.03,5.527-0.042,7.273-0.042c1.74,0,3.658,0.012,5.736,0.042
				l1.033-4.599l-0.34-0.34c-0.863,0.095-2.15,0.162-3.852,0.188c-3.104,0.071-4.81,0.1-5.093,0.1c-0.536,0-2.122-0.015-4.759-0.056
				c0.434-9.319,0.824-14.047,1.186-16.785l-1.186-0.976c-2.146,1.341-4.921,2.61-8.352,3.796c0,2.176,0,5.876,0,13.733
				c-1.871,0.988-4.396,2.11-7.568,3.364v2.068c2.04-0.16,3.892-0.244,5.543-0.244H70.715z"/>
			<path d="M388.975,238.254c-7.344,0-13.373,2.334-18.061,7.008c-4.706,4.677-7.045,10.705-7.045,18.082
				c0,4.098,0.762,7.943,2.266,11.536c0.854,2.051,2.117,4.046,3.762,5.981c1.646,1.953,3.803,3.58,6.465,4.844
				c2.643,1.307,5.886,1.948,9.697,1.948c4.924,0,9.417-1.136,13.498-3.39c4.09-2.256,7.258-5.377,9.504-9.384
				c2.229-3.989,3.353-8.392,3.353-13.218c0-6.898-2.171-12.518-6.526-16.869C401.539,240.438,395.904,238.254,388.975,238.254z
				 M399.016,279.591c-2.571,3.038-5.764,4.55-9.595,4.55c-2.991,0-5.771-0.956-8.323-2.898c-2.55-1.918-4.51-4.984-5.859-9.186
				c-1.352-4.174-2.035-8.311-2.035-12.369c0-6.209,1.264-10.768,3.779-13.713c2.514-2.935,5.817-4.411,9.863-4.411
				c2.873,0,5.501,0.795,7.869,2.349c2.375,1.576,4.323,4.264,5.861,8.08c1.527,3.809,2.303,8.337,2.303,13.579
				C402.879,271.881,401.59,276.553,399.016,279.591z"/>
			<path d="M466.871,282.396c-0.348-0.373-0.609-1.056-0.767-2.043c-0.228-1.543-0.347-4.469-0.347-8.76v-8.753
				c0-6.778-0.109-10.921-0.348-12.409c-0.389-2.492-1.196-4.58-2.404-6.232c-1.195-1.637-2.992-3.012-5.381-4.104
				c-2.387-1.085-4.928-1.624-7.596-1.624c-2.403,0-4.961,0.486-7.656,1.48l-9.199,7.867c0.096-3.814,0.188-6.332,0.304-7.521
				c0.022-0.304,0.04-0.551,0.04-0.797c0-0.316-0.068-0.571-0.193-0.734c-0.13-0.166-0.312-0.242-0.545-0.242
				c-0.229,0-0.678,0.163-1.334,0.486c-3.072,1.49-7.934,2.689-14.586,3.617v2.811c3.748-0.037,5.896,0.042,6.418,0.232
				c0.539,0.174,0.912,0.443,1.117,0.814c0.215,0.356,0.377,1.509,0.467,3.468c0.102,3.017,0.157,5.849,0.157,8.485v5.898
				c-0.168,9.025-0.247,13.756-0.247,14.177c-0.106,1.677-0.332,2.851-0.69,3.523c-0.198,0.319-0.499,0.603-0.878,0.808
				c-0.382,0.217-0.922,0.349-1.617,0.383l-4.727,0.038v2.824c6.267-0.234,10.775-0.356,13.537-0.356
				c3.267,0,6.92,0.122,10.941,0.356v-2.824c-3.461-0.058-5.287-0.106-5.477-0.14c-0.567-0.144-0.984-0.315-1.246-0.523
				c-0.273-0.217-0.467-0.474-0.596-0.771c-0.336-0.749-0.529-1.953-0.6-3.604c0-0.701-0.08-5.334-0.246-13.891v-5.992
				c0-3.625,0.432-6.199,1.301-7.729c0.875-1.53,2.34-2.887,4.389-4.064c2.044-1.178,4.305-1.748,6.766-1.748
				c2.813,0,5.195,0.667,7.172,2.018c1.984,1.35,3.25,3.143,3.811,5.355c0.393,1.609,0.598,5.007,0.598,10.169v8.318
				c0,2.135-0.242,7.278-0.697,15.426c4.287-0.234,7.363-0.356,9.193-0.356c2.146,0,4.833,0.122,8.06,0.356v-2.824l-5.294-0.14
				C467.76,283.017,467.223,282.779,466.871,282.396z"/>
			<path d="M331.981,164.638c0,0.612-0.019,1.205-0.045,1.724c-0.102,2.668-0.187,5.122-0.206,7.363
				c0.164,2.348,0.539,4.056,1.099,5.147c0.573,1.09,1.282,1.983,2.131,2.698c0.865,0.709,1.808,1.258,2.842,1.658
				c1.042,0.393,2.444,0.595,4.183,0.595c1.409,0,2.666-0.076,3.742-0.233c1.1-0.148,2.263-0.444,3.509-0.909
				c1.455-1.321,2.95-2.586,4.507-3.81l-0.592-1.931c-1.283,0.461-2.348,0.75-3.191,0.863c-0.83,0.123-1.922,0.175-3.275,0.175
				c-1.777-0.228-3.026-0.559-3.756-0.993c-0.748-0.419-1.344-0.994-1.801-1.7c-0.457-0.709-0.777-1.552-0.938-2.495
				c-0.176-0.96-0.199-3.891-0.107-8.809l0.258-21.423c3.084-0.03,5.511-0.042,7.256-0.042c1.76,0,3.674,0.012,5.744,0.042
				l1.045-4.599l-0.358-0.34c-0.853,0.095-2.143,0.162-3.847,0.188c-3.102,0.071-4.801,0.1-5.096,0.1
				c-0.528,0-2.113-0.015-4.744-0.056c0.418-9.319,0.825-14.047,1.184-16.785l-1.184-0.976c-2.152,1.341-4.936,2.61-8.358,3.796
				c0,2.176,0,5.876,0,13.733c-1.879,0.988-4.399,2.11-7.569,3.364v2.068c2.047-0.16,3.887-0.244,5.529-0.244h2.04V164.638z"/>
			<path d="M335.566,42.428v21.809c0,0.626-0.01,1.2-0.037,1.729c-0.1,2.672-0.18,5.122-0.216,7.375
				c0.175,2.344,0.543,4.049,1.11,5.136c0.56,1.089,1.277,1.996,2.131,2.695c0.865,0.705,1.805,1.26,2.842,1.651
				c1.039,0.402,2.432,0.591,4.186,0.591c1.402,0,2.655-0.068,3.748-0.209c1.091-0.153,2.244-0.458,3.5-0.916
				c1.449-1.318,2.951-2.593,4.5-3.813l-0.594-1.917c-1.283,0.455-2.348,0.739-3.178,0.854c-0.854,0.116-1.927,0.176-3.283,0.176
				c-1.771-0.231-3.023-0.562-3.767-0.979c-0.737-0.431-1.343-1.014-1.794-1.71c-0.465-0.718-0.768-1.548-0.93-2.498
				c-0.178-0.96-0.209-3.888-0.11-8.802l0.257-21.439c3.088-0.026,5.513-0.044,7.26-0.044c1.752,0,3.664,0.018,5.742,0.044
				l1.033-4.582l-0.348-0.359c-0.852,0.104-2.141,0.178-3.845,0.211c-3.106,0.062-4.802,0.094-5.108,0.094
				c-0.516,0-2.105-0.012-4.734-0.043c0.415-9.337,0.82-14.069,1.177-16.793l-1.177-0.996c-2.152,1.341-4.932,2.617-8.365,3.793
				c0,2.185,0,5.899,0,13.733c-1.869,1.001-4.395,2.113-7.561,3.366v2.081c2.043-0.163,3.889-0.24,5.531-0.24H335.566z"/>
			<path d="M109.295,281.578c-1.414-1.512-3.852-4.668-7.285-9.441c-3.451-4.764-5.576-7.719-6.371-8.885l-1.824-2.76l3.058-3.985
				l4.728-5.657c3.471-4.243,5.969-6.865,7.49-7.898c0.729-0.487,1.815-0.761,3.271-0.792v-2.814
				c-1.124,0.065-2.26,0.093-2.979,0.123c-0.356,0.01-1.025,0.021-1.281,0.021c-0.869,0-2.15-0.052-3.867-0.145
				c-4.379,6.325-7.776,11.011-10.182,14.075l-2.819,3.647l-3.465-5.466c-2.612-4.021-4.822-7.205-6.634-9.543
				c-1.051-1.279-2.209-2.51-3.459-3.648c-3.922,0.859-7.795,1.496-11.615,1.924l0.585,2.824c0.761-0.058,1.288-0.107,1.582-0.107
				c0.741,0,1.368,0.152,1.887,0.456c1.394,0.806,3.157,2.54,5.276,5.179c2.132,2.641,4.315,5.645,6.556,9.021l4.188,6.234
				l-11.568,14.17c-2.021,2.344-3.619,3.836-4.803,4.498c-0.889,0.467-2.121,0.691-3.703,0.691v2.813
				c1.307-0.224,2.744-0.347,4.299-0.347c0.734,0,1.625,0.123,2.277,0.16c0.789,0.061,1.915,0.068,2.639,0.187
				c5.322-8.241,9.781-14.479,13.407-18.726l7.311,11.009c1.687,2.464,3.577,5.044,5.693,7.717c2.138-0.224,4.172-0.347,6.126-0.347
				c1.85,0,3.924,0.123,6.225,0.347v-2.813c-1.445,0-2.418-0.094-2.91-0.291C110.631,282.805,110.026,282.331,109.295,281.578z"/>
			<path d="M285.947,282.645c-0.272-0.226-0.477-0.481-0.646-0.772c-0.332-0.76-0.506-1.963-0.539-3.615
				c-0.038-0.688-0.131-5.315-0.297-13.892v-8.998c0-3.73,0.135-9.094,0.396-16.117l-1.085-0.798
				c-4.367,2.048-9.736,3.438-16.117,4.157v2.812c3.878,0,6.084,0.128,6.591,0.379c0.511,0.246,0.864,0.615,1.058,1.11
				c0.332,0.917,0.506,3.839,0.506,8.749v8.705c-0.174,9.031-0.24,13.762-0.24,14.184c-0.105,1.691-0.348,2.852-0.708,3.52
				c-0.202,0.328-0.485,0.602-0.874,0.809c-0.371,0.236-0.914,0.35-1.617,0.381l-4.715,0.043v2.813
				c5.992-0.224,10.308-0.347,12.945-0.347c2.998,0,7,0.123,12.015,0.347v-2.813c-3.46-0.061-5.287-0.108-5.483-0.143
				C286.604,283.023,286.215,282.849,285.947,282.645z"/>
			<path d="M283.613,225.992c1.1-1.09,1.633-2.385,1.633-3.903c0-1.547-0.533-2.858-1.602-3.96
				c-1.073-1.082-2.376-1.627-3.924-1.627c-1.555,0-2.882,0.545-3.959,1.627c-1.084,1.102-1.636,2.413-1.636,3.96
				c0,1.519,0.552,2.813,1.636,3.903c1.077,1.086,2.404,1.635,3.959,1.635C281.234,227.627,282.527,227.078,283.613,225.992z"/>
			<path d="M352.083,282.645c-0.272-0.226-0.478-0.481-0.642-0.772c-0.338-0.76-0.513-1.963-0.545-3.615
				c-0.039-0.688-0.129-5.315-0.291-13.892v-8.998c0-3.73,0.125-9.094,0.387-16.117l-1.082-0.798
				c-4.359,2.048-9.734,3.438-16.111,4.157v2.812c3.877,0,6.082,0.128,6.593,0.379c0.503,0.246,0.866,0.615,1.058,1.11
				c0.32,0.917,0.498,3.839,0.498,8.749v8.705c-0.178,9.031-0.242,13.762-0.242,14.184c-0.104,1.691-0.345,2.852-0.705,3.52
				c-0.201,0.328-0.482,0.602-0.871,0.809c-0.371,0.236-0.917,0.35-1.62,0.381l-4.71,0.043v2.813
				c5.994-0.224,10.307-0.347,12.934-0.347c3.017,0,7.014,0.123,12.029,0.347v-2.813c-3.471-0.061-5.292-0.108-5.495-0.143
				C352.738,283.023,352.347,282.849,352.083,282.645z"/>
			<path d="M341.895,218.129c-1.078,1.102-1.637,2.413-1.637,3.96c0,1.519,0.559,2.813,1.637,3.903
				c1.08,1.086,2.404,1.635,3.959,1.635c1.516,0,2.808-0.549,3.903-1.635c1.093-1.09,1.634-2.385,1.634-3.903
				c0-1.547-0.541-2.858-1.605-3.96c-1.079-1.082-2.38-1.627-3.932-1.627C344.299,216.502,342.975,217.047,341.895,218.129z"/>
			<path d="M372.488,14.436c-1.078,1.102-1.637,2.413-1.637,3.96c0,1.519,0.559,2.813,1.637,3.903
				c1.08,1.086,2.404,1.635,3.959,1.635c1.516,0,2.808-0.549,3.903-1.635c1.093-1.09,1.634-2.385,1.634-3.903
				c0-1.547-0.541-2.858-1.605-3.96c-1.079-1.082-2.38-1.627-3.932-1.627C374.893,12.809,373.568,13.354,372.488,14.436z"/>
		</g>
	</g>
</g>
<g id="Grids" display="none">
</g>
</svg>
